<svg width="800" height="600" viewBox="0 0 800 600" fill="none" xmlns="http://www.w3.org/2000/svg" role="img" aria-labelledby="title-users">
  <title id="title-users">Users — understand every user</title>
  <!-- Replayfy Illustration System · 05 Users · hand-crafted SVG -->

  <defs>
    <radialGradient id="usr-glow" cx="0.5" cy="0.5" r="0.5">
      <stop offset="0" stop-color="#E9EEFA" stop-opacity="0.7"/>
      <stop offset="0.7" stop-color="#EDF1FA" stop-opacity="0.32"/>
      <stop offset="1" stop-color="#EDF1FA" stop-opacity="0"/>
    </radialGradient>
    <radialGradient id="usr-shadow" cx="0.5" cy="0.5" r="0.5">
      <stop offset="0" stop-color="#3D4A6B" stop-opacity="0.16"/>
      <stop offset="0.65" stop-color="#3D4A6B" stop-opacity="0.07"/>
      <stop offset="1" stop-color="#3D4A6B" stop-opacity="0"/>
    </radialGradient>
    <linearGradient id="usr-panel" x1="0" y1="0" x2="0" y2="1">
      <stop offset="0" stop-color="#FFFFFF"/>
      <stop offset="1" stop-color="#F4F6FB"/>
    </linearGradient>
    <linearGradient id="usr-spark" x1="0" y1="0" x2="0" y2="1">
      <stop offset="0" stop-color="#6D9BFF" stop-opacity="0.16"/>
      <stop offset="1" stop-color="#6D9BFF" stop-opacity="0"/>
    </linearGradient>
    <linearGradient id="usr-cat-indigo" x1="0" y1="0" x2="0" y2="1">
      <stop offset="0" stop-color="#7E8BFA"/>
      <stop offset="1" stop-color="#5F6CEC"/>
    </linearGradient>
    <path id="usr-ear" d="M -16 14 Q -20 17 -17.5 10 L -4.5 -14 Q 0 -21 4.5 -14 L 17.5 10 Q 20 17 16 14 Q 0 7 -16 14 Z"/>
    <g id="usr-minicat">
      <path d="M -9.5 -9 L -4 -15.5 Q -1.6 -18 0 -15.5 L 4.5 -9 Z" fill="currentColor" transform="translate(-7 -6) rotate(-18)"/>
      <path d="M -4.5 -9 L 0 -15.5 Q 1.6 -18 4 -15.5 L 9.5 -9 Z" fill="currentColor" transform="translate(7 -6) rotate(18)"/>
      <path d="M-15 1.5 C -15 -8 -8.5 -13.5 0 -13.5 C 8.5 -13.5 15 -8 15 1.5 C 15 9.5 8 14 0 14 C -8 14 -15 9.5 -15 1.5 Z" fill="currentColor"/>
      <ellipse cx="-5.2" cy="-1" rx="2.4" ry="3.1" fill="#262B45"/>
      <ellipse cx="5.2" cy="-1" rx="2.4" ry="3.1" fill="#262B45"/>
      <circle cx="-4.2" cy="-2.2" r="0.9" fill="#FFFFFF"/>
      <circle cx="6.2" cy="-2.2" r="0.9" fill="#FFFFFF"/>
      <path d="M-1.4 4.6 L 1.4 4.6 Q 2.4 4.8 1.7 5.9 L 0.7 7 Q 0 7.7 -0.7 7 L -1.7 5.9 Q -2.4 4.8 -1.4 4.6 Z" fill="#3A3F5F"/>
    </g>
    <radialGradient id="usr-soft-indigo" cx="0.5" cy="0.5" r="0.5">
      <stop offset="0" stop-color="#EDEFFF" stop-opacity="0.95"/>
      <stop offset="0.7" stop-color="#EDEFFF" stop-opacity="0.8"/>
      <stop offset="1" stop-color="#EDEFFF" stop-opacity="0"/>
    </radialGradient>
  </defs>

  <g id="background">
    <ellipse cx="400" cy="316" rx="380" ry="262" fill="url(#usr-glow)"/>
    <g id="ambient-marks" stroke-linecap="round">
      <circle cx="90" cy="136" r="5" stroke="#C8D2ED" stroke-width="2.5"/>
      <path d="M730 108v14M723 115h14" stroke="#D5CBF7" stroke-width="2.5"/>
      <circle cx="756" cy="452" r="4" fill="#CBE8DC"/>
      <circle cx="86" cy="420" r="3.5" fill="#D9E2F5"/>
      <circle cx="530" cy="92" r="4.5" stroke="#D7DEF0" stroke-width="2.5"/>
    </g>
  </g>

  <g id="profile-deck">
    <g transform="rotate(3.5 336 296)" opacity="0.9">
      <rect x="186" y="122" width="300" height="348" rx="20" fill="#FFFFFF" stroke="#E6EAF4" stroke-width="1.5"/>
    </g>
    <g transform="rotate(-3 320 300)" opacity="0.9">
      <rect x="154" y="126" width="300" height="344" rx="20" fill="#FFFFFF" stroke="#E6EAF4" stroke-width="1.5"/>
    </g>
    <g id="deck-avatar-right" transform="translate(492 144)">
      <circle r="16" fill="#F0F3FA"/>
      <use href="#usr-minicat" color="#B9C4DC" transform="scale(0.8)"/>
    </g>
    <g id="deck-avatar-left" transform="translate(148 202)">
      <circle r="16" fill="#E9F6EF"/>
      <use href="#usr-minicat" color="#8FD0B4" transform="scale(0.8)"/>
    </g>
  </g>

  <g id="profile-card">
    <ellipse cx="320" cy="478" rx="172" ry="15" fill="url(#usr-shadow)"/>
    <rect x="170" y="110" width="300" height="350" rx="20" fill="url(#usr-panel)" stroke="#E3E8F3" stroke-width="1.5"/>
    <g id="profile-avatar">
      <circle cx="320" cy="178" r="44" fill="#FDF3E3" stroke="#FFFFFF" stroke-width="4"/>
      <use href="#usr-minicat" color="#EDBE7F" transform="translate(320 181) scale(2.15)"/>
      <circle cx="353" cy="208" r="8" fill="#3FBF89" stroke="#FFFFFF" stroke-width="3"/>
    </g>
    <rect x="260" y="238" width="120" height="11" rx="5.5" fill="#C9D3E6"/>
    <rect x="282" y="259" width="76" height="8" rx="4" fill="#E0E6F2"/>
    <path d="M194 286 H 446" stroke="#EDF0F7" stroke-width="1.5"/>
    <g id="profile-stats">
      <rect x="233" y="300" width="34" height="10" rx="5" fill="#C9D3E6"/>
      <rect x="228" y="318" width="44" height="7" rx="3.5" fill="#E4E9F4"/>
      <rect x="303" y="300" width="34" height="10" rx="5" fill="#C9D3E6"/>
      <rect x="298" y="318" width="44" height="7" rx="3.5" fill="#E4E9F4"/>
      <rect x="373" y="300" width="34" height="10" rx="5" fill="#C9D3E6"/>
      <rect x="368" y="318" width="44" height="7" rx="3.5" fill="#E4E9F4"/>
    </g>
    <g id="profile-spark">
      <path d="M200 396 L 232 380 L 264 388 L 296 362 L 328 370 L 360 348 L 392 356 L 424 336 L 424 410 L 200 410 Z" fill="url(#usr-spark)"/>
      <path d="M200 396 L 232 380 L 264 388 L 296 362 L 328 370 L 360 348 L 392 356 L 424 336" stroke="#4E75F4" stroke-width="3" stroke-linecap="round" stroke-linejoin="round" fill="none"/>
      <circle cx="424" cy="336" r="5" fill="#4066F0" stroke="#FFFFFF" stroke-width="2.5"/>
    </g>
    <g id="profile-devices">
      <rect x="208" y="424" width="62" height="24" rx="12" fill="#F1F4FB"/>
      <rect x="220" y="431" width="13" height="8" rx="1.5" stroke="#9FB0D6" stroke-width="1.8"/>
      <path d="M217 441.5 h19" stroke="#9FB0D6" stroke-width="1.8" stroke-linecap="round"/>
      <rect x="241" y="433" width="20" height="7" rx="3.5" fill="#D6DEED"/>
      <rect x="278" y="424" width="62" height="24" rx="12" fill="#F1F4FB"/>
      <rect x="290" y="429" width="9" height="14" rx="2" stroke="#9FB0D6" stroke-width="1.8"/>
      <rect x="308" y="433" width="20" height="7" rx="3.5" fill="#D6DEED"/>
    </g>
  </g>

  <g id="identity-links" stroke-width="2" fill="none" stroke-linecap="round" stroke-dasharray="1 8">
    <path d="M368 176 C 440 154 500 160 558 182" stroke="#93B1F2" opacity="0.75"/>
    <path d="M368 188 C 450 206 512 226 578 262" stroke="#B9A6F5" opacity="0.75"/>
    <path d="M368 200 C 440 248 484 296 560 336" stroke="#8FD0B4" opacity="0.75"/>
  </g>

  <g id="event-rail">
    <g id="event-click">
      <ellipse cx="644" cy="210" rx="66" ry="6" fill="url(#usr-shadow)"/>
      <rect x="566" y="164" width="150" height="40" rx="20" fill="#FFFFFF" stroke="#E6EAF4" stroke-width="1.5"/>
      <circle cx="588" cy="184" r="12" fill="#EEF2FF"/>
      <circle cx="588" cy="184" r="4" fill="#5B8CFF"/>
      <circle cx="588" cy="184" r="8" stroke="#5B8CFF" stroke-width="1.5" opacity="0.4"/>
      <rect x="608" y="174" width="70" height="7" rx="3.5" fill="#C9D3E6"/>
      <rect x="608" y="187" width="44" height="6" rx="3" fill="#E4E9F4"/>
    </g>
    <g id="event-page">
      <ellipse cx="664" cy="290" rx="66" ry="6" fill="url(#usr-shadow)"/>
      <rect x="586" y="244" width="150" height="40" rx="20" fill="#FFFFFF" stroke="#E6EAF4" stroke-width="1.5"/>
      <circle cx="608" cy="264" r="12" fill="#F3EEFF"/>
      <rect x="603.5" y="257" width="9" height="13" rx="1.5" stroke="#8B5CF6" stroke-width="1.6"/>
      <path d="M606 261.5 h4 M606 265 h4" stroke="#8B5CF6" stroke-width="1.4" stroke-linecap="round"/>
      <rect x="628" y="254" width="70" height="7" rx="3.5" fill="#C9D3E6"/>
      <rect x="628" y="267" width="44" height="6" rx="3" fill="#E4E9F4"/>
    </g>
    <g id="event-time">
      <ellipse cx="644" cy="370" rx="66" ry="6" fill="url(#usr-shadow)"/>
      <rect x="566" y="324" width="150" height="40" rx="20" fill="#FFFFFF" stroke="#E6EAF4" stroke-width="1.5"/>
      <circle cx="588" cy="344" r="12" fill="#E9F6EF"/>
      <circle cx="588" cy="344" r="6.5" stroke="#34B67F" stroke-width="1.8"/>
      <path d="M588 340.5 v3.8 l2.6 1.8" stroke="#34B67F" stroke-width="1.6" stroke-linecap="round"/>
      <rect x="608" y="334" width="70" height="7" rx="3.5" fill="#C9D3E6"/>
      <rect x="608" y="347" width="44" height="6" rx="3" fill="#E4E9F4"/>
    </g>
  </g>

  <g id="cat-hero" aria-label="Cat studying the user profile">
    <ellipse id="cat-shadow" cx="560" cy="592" rx="80" ry="11" fill="url(#usr-shadow)"/>
    <g transform="translate(556 456) rotate(-2)">
      <g id="hero-tail">
        <path d="M32 106 C 66 116 88 106 92 82 C 94.5 68 82 64 79 76 C 76 90 62 98 36 94 Z" fill="#5F6CEC"/>
        <circle cx="86.5" cy="72" r="7" fill="#EDEFFF"/>
      </g>
      <g id="hero-ears">
        <g transform="translate(-33 -45) rotate(-26)">
          <use href="#usr-ear" fill="#6874F0"/>
          <use href="#usr-ear" fill="#D9CFFF" transform="translate(0 -1.5) scale(0.52)"/>
        </g>
        <g transform="translate(33 -45) rotate(26)">
          <use href="#usr-ear" fill="#6874F0"/>
          <use href="#usr-ear" fill="#D9CFFF" transform="translate(0 -1.5) scale(0.52)"/>
        </g>
      </g>
      <g id="hero-body">
        <path d="M-40 110 C -40 58 -22 34 0 34 C 22 34 40 58 40 110 C 40 124 28 130 0 130 C -28 130 -40 124 -40 110 Z" fill="url(#usr-cat-indigo)"/>
        <ellipse cx="0" cy="43" rx="23" ry="8" fill="#4A55CF" opacity="0.1"/>
        <ellipse cx="0" cy="94" rx="15" ry="21" fill="url(#usr-soft-indigo)"/>
        <rect x="-25" y="108" width="18" height="24" rx="9" fill="#EDEFFF"/>
        <rect x="7" y="108" width="18" height="24" rx="9" fill="#EDEFFF"/>
        <path d="M-19 125v5M-13 125v5M13 125v5M19 125v5" stroke="#C9CDF4" stroke-width="1.6" stroke-linecap="round"/>
      </g>
      <g id="hero-head">
        <path d="M-52 4 C -52 -28 -30 -46 0 -46 C 28 -46 52 -28 52 4 C 52 32 28 48 0 48 C -28 48 -52 32 -52 4 Z" fill="url(#usr-cat-indigo)"/>
        <g id="hero-face" transform="translate(-7 -6)">
          <ellipse cx="1" cy="16" rx="19" ry="11.5" fill="url(#usr-soft-indigo)"/>
          <ellipse cx="-18" cy="-6" rx="8" ry="10.5" fill="#262B45"/>
          <ellipse cx="20" cy="-6" rx="8" ry="10.5" fill="#262B45"/>
          <circle cx="-21" cy="-10" r="3" fill="#FFFFFF"/>
          <circle cx="17" cy="-10" r="3" fill="#FFFFFF"/>
          <circle cx="-14.5" cy="-2" r="1.2" fill="#FFFFFF" opacity="0.6"/>
          <circle cx="24.5" cy="-2" r="1.2" fill="#FFFFFF" opacity="0.6"/>
          <path d="M-3 10 L 5 10 Q 7.4 10.5 6 13 L 3 16.2 Q 1 17.8 -1 16.2 L -4 13 Q -5.4 10.5 -3 10 Z" fill="#3A3F5F"/>
          <path d="M1 17.5 Q 1 21 -2.6 21.8 M1 17.5 Q 1 21 4.6 21.8" stroke="#3A3F5F" stroke-width="1.7" stroke-linecap="round" fill="none"/>
          <ellipse cx="-30" cy="10" rx="6" ry="3.6" fill="#F19BB4" opacity="0.3"/>
          <ellipse cx="32" cy="10" rx="6" ry="3.6" fill="#F19BB4" opacity="0.3"/>
          <g stroke="#4A55CF" stroke-width="1.5" stroke-linecap="round" opacity="0.4">
            <path d="M-33 6 L -50 2"/>
            <path d="M-33 12 L -49 12"/>
            <path d="M37 6 L 53 2"/>
            <path d="M37 12 L 52 12"/>
          </g>
        </g>
      </g>
    </g>
  </g>
</svg>
